<svg width="905" height="218" viewBox="0 0 905 218" fill="none" xmlns="http://www.w3.org/2000/svg">
<g clip-path="url(#clip0_109_572)">
<path d="M429 77.0962V73.8028H424.85V68.6829L424.711 68.7253L420.813 69.9006L420.736 69.9236V73.803H414.585V71.6418C414.585 70.6355 414.813 69.8655 415.263 69.3519C415.71 68.8445 416.349 68.5865 417.164 68.5865C417.75 68.5865 418.357 68.7226 418.967 68.9909L419.121 69.0582V65.5899L419.048 65.5638C418.479 65.362 417.704 65.2604 416.744 65.2604C415.534 65.2604 414.434 65.52 413.475 66.0344C412.515 66.5496 411.76 67.2851 411.232 68.2202C410.705 69.1543 410.437 70.233 410.437 71.4268V73.8028H407.548V77.0962H410.437V90.9705H414.585V77.0962H420.736V85.913C420.736 89.5443 422.474 91.3844 425.902 91.3844C426.465 91.3844 427.057 91.3194 427.663 91.192C428.279 91.0612 428.698 90.9306 428.945 90.7911L429 90.7592V87.4355L428.831 87.5454C428.606 87.6932 428.326 87.8141 427.997 87.9039C427.667 87.9954 427.391 88.0412 427.178 88.0412C426.375 88.0412 425.781 87.828 425.412 87.4072C425.04 86.9826 424.851 86.24 424.851 85.2013V77.0962H429ZM398.285 88.0418C396.78 88.0418 395.593 87.5498 394.756 86.5806C393.915 85.6065 393.488 84.2178 393.488 82.4534C393.488 80.633 393.915 79.2082 394.757 78.217C395.594 77.2322 396.769 76.7324 398.251 76.7324C399.69 76.7324 400.835 77.2098 401.655 78.1519C402.479 79.099 402.897 80.5123 402.897 82.3539C402.897 84.2182 402.504 85.6502 401.728 86.6081C400.958 87.5588 399.8 88.0418 398.285 88.0418ZM398.47 73.3892C395.597 73.3892 393.316 74.2187 391.69 75.8547C390.064 77.4909 389.24 79.7551 389.24 82.5851C389.24 85.273 390.044 87.4351 391.631 89.0102C393.218 90.5859 395.378 91.384 398.05 91.384C400.834 91.384 403.07 90.5429 404.696 88.8843C406.321 87.2275 407.145 84.9846 407.145 82.2208C407.145 79.4908 406.372 77.3126 404.847 75.748C403.321 74.1827 401.175 73.3892 398.47 73.3892ZM382.552 73.3892C380.599 73.3892 378.983 73.8818 377.748 74.853C376.506 75.8299 375.876 77.1112 375.876 78.6617C375.876 79.4676 376.012 80.1836 376.279 80.7908C376.549 81.4 376.965 81.9364 377.519 82.3866C378.068 82.8331 378.916 83.3008 380.04 83.7767C380.985 84.1599 381.689 84.4839 382.137 84.7394C382.574 84.9897 382.885 85.2413 383.06 85.4864C383.23 85.7263 383.317 86.0545 383.317 86.4596C383.317 87.613 382.44 88.1742 380.637 88.1742C379.968 88.1742 379.205 88.0365 378.37 87.7652C377.54 87.4979 376.757 87.1065 376.048 86.6047L375.875 86.483V90.4189L375.939 90.4478C376.525 90.7149 377.265 90.94 378.138 91.1172C379.008 91.2946 379.799 91.3848 380.486 91.3848C382.606 91.3848 384.313 90.8899 385.559 89.9129C386.813 88.9292 387.448 87.6177 387.448 86.0136C387.448 84.8564 387.106 83.864 386.432 83.0637C385.762 82.2699 384.6 81.5411 382.979 80.8969C381.688 80.3861 380.861 79.962 380.519 79.6365C380.19 79.322 380.023 78.8773 380.023 78.3141C380.023 77.8148 380.23 77.4148 380.653 77.0909C381.079 76.7654 381.673 76.5998 382.418 76.5998C383.109 76.5998 383.816 76.7074 384.519 76.9183C385.222 77.1291 385.839 77.4116 386.354 77.757L386.524 77.8711V74.1376L386.459 74.11C385.984 73.9091 385.357 73.7372 384.595 73.5977C383.838 73.4592 383.15 73.3892 382.552 73.3892ZM365.063 88.0418C363.558 88.0418 362.37 87.5498 361.534 86.5806C360.692 85.6065 360.267 84.2182 360.267 82.4534C360.267 80.633 360.693 79.2082 361.535 78.217C362.371 77.2322 363.547 76.7324 365.03 76.7324C366.467 76.7324 367.612 77.2098 368.432 78.1519C369.257 79.099 369.675 80.5123 369.675 82.3539C369.675 84.2182 369.281 85.6502 368.506 86.6081C367.735 87.5588 366.578 88.0418 365.063 88.0418ZM365.248 73.3892C362.375 73.3892 360.093 74.2187 358.468 75.8547C356.842 77.4909 356.017 79.7551 356.017 82.5851C356.017 85.2741 356.822 87.4351 358.409 89.0102C359.996 90.5859 362.156 91.384 364.828 91.384C367.611 91.384 369.848 90.5429 371.474 88.8843C373.099 87.2275 373.923 84.9846 373.923 82.2208C373.923 79.4908 373.15 77.3126 371.625 75.748C370.098 74.1827 367.953 73.3892 365.248 73.3892ZM349.721 76.7759V73.8028H345.624V90.9701H349.721V82.1884C349.721 80.6951 350.065 79.4684 350.743 78.5418C351.412 77.6262 352.304 77.1623 353.392 77.1623C353.761 77.1623 354.176 77.2222 354.624 77.3409C355.068 77.4588 355.39 77.5869 355.58 77.7217L355.752 77.8447V73.7735L355.686 73.7454C355.304 73.5856 354.764 73.505 354.081 73.505C353.052 73.505 352.13 73.8311 351.341 74.4731C350.648 75.0374 350.148 75.8111 349.765 76.7759H349.721ZM338.287 73.3892C336.407 73.3892 334.73 73.7865 333.304 74.5696C331.875 75.3546 330.77 76.4752 330.018 77.9001C329.27 79.3216 328.889 80.9821 328.889 82.8338C328.889 84.4559 329.258 85.9444 329.986 87.2563C330.715 88.5704 331.747 89.5984 333.052 90.3114C334.356 91.0235 335.863 91.3846 337.532 91.3846C339.479 91.3846 341.141 91.0009 342.474 90.2442L342.528 90.2138V86.5141L342.356 86.638C341.752 87.0715 341.077 87.4175 340.351 87.6668C339.627 87.9159 338.967 88.0418 338.388 88.0418C336.78 88.0418 335.49 87.546 334.553 86.5685C333.614 85.5897 333.138 84.2153 333.138 82.4858C333.138 80.7455 333.634 79.3358 334.613 78.2956C335.588 77.2585 336.881 76.7324 338.456 76.7324C339.802 76.7324 341.115 77.1819 342.356 78.0695L342.528 78.1925V74.2943L342.472 74.2635C342.005 74.0057 341.368 73.7928 340.577 73.6314C339.789 73.4704 339.019 73.3892 338.287 73.3892ZM326.068 73.803H321.97V90.9701H326.068V73.803ZM324.061 66.4897C323.387 66.4897 322.798 66.7159 322.315 67.1643C321.83 67.6139 321.584 68.18 321.584 68.8481C321.584 69.5057 321.827 70.0615 322.308 70.4991C322.785 70.9355 323.375 71.1567 324.061 71.1567C324.747 71.1567 325.339 70.9355 325.822 70.4999C326.309 70.0615 326.555 69.5059 326.555 68.8481C326.555 68.2034 326.315 67.6431 325.842 67.1824C325.37 66.7226 324.77 66.4897 324.061 66.4897ZM313.838 72.5364V90.9701H318.019V67.0152H312.232L304.876 84.8082L297.738 67.0152H291.715V90.9699H295.644V72.5346H295.779L303.317 90.9701H306.283L313.703 72.5364H313.838Z" fill="#8C82FC"/>
<path d="M258.274 78.0084H239V59.0112H258.274V78.0084Z" fill="#8C82FC"/>
<path d="M279.556 78.0075H260.282V59.0104H279.556V78.0075Z" fill="#44E4C9"/>
<path d="M258.274 98.9897H239V79.9928H258.274V98.9897Z" fill="#44E4C9"/>
<path d="M279.556 98.9897H260.282V79.9928H279.556V98.9897Z" fill="#8C82FC"/>
</g>
<g clip-path="url(#clip1_109_572)">
<path d="M27.3033 52C12.2266 52 1.57576e-05 64.1365 1.57576e-05 79.108C-0.00614401 84.79 1.79377 90.3302 5.14538 94.9456C8.49699 99.5611 13.2308 103.018 18.6778 104.829C20.0431 105.079 20.5414 104.242 20.5414 103.523C20.5414 102.878 20.5176 101.174 20.5039 98.9125C12.9092 100.549 11.305 95.2776 11.305 95.2776C10.0659 92.1456 8.27393 91.312 8.27393 91.312C5.79244 89.6312 8.45825 89.665 8.45825 89.665C11.1992 89.8574 12.6396 92.4595 12.6396 92.4595C15.0767 96.6006 19.0328 95.4059 20.5892 94.7106C20.835 92.959 21.5416 91.7642 22.3232 91.0859C16.2611 90.4007 9.88502 88.0754 9.88502 77.6905C9.88502 74.7306 10.95 72.3107 12.6976 70.414C12.4143 69.7289 11.479 66.9715 12.9638 63.2421C12.9638 63.2421 15.2576 62.5131 20.4732 66.0197C22.7012 65.4177 25.0003 65.1113 27.3101 65.1085C29.6199 65.113 31.919 65.4206 34.147 66.0231C39.3591 62.5165 41.6495 63.2455 41.6495 63.2455C43.1377 66.9782 42.2024 69.7322 41.9226 70.4174C43.6736 72.3141 44.7283 74.734 44.7283 77.6939C44.7283 88.1057 38.3454 90.3974 32.2628 91.069C33.2425 91.906 34.1163 93.5597 34.1163 96.0876C34.1163 99.7124 34.0821 102.635 34.0821 103.523C34.0821 104.248 34.5737 105.092 35.9595 104.825C41.4011 103.011 46.1291 99.5521 49.476 94.9378C52.823 90.3234 54.6199 84.7864 54.6133 79.108C54.6133 64.1365 42.3868 52 27.3033 52Z" fill="#44E4C9"/>
</g>
<g clip-path="url(#clip2_109_572)">
<path fill-rule="evenodd" clip-rule="evenodd" d="M109.915 88.8187H109.869C109.89 88.8187 109.903 88.8411 109.924 88.8434H109.938L109.915 88.8209V88.8187ZM109.924 88.8434C109.713 88.8456 109.182 88.9556 108.621 88.9556C106.85 88.9556 106.238 88.1476 106.238 87.0927V80.0654H109.847C110.051 80.0654 110.21 79.8858 110.21 79.6389V75.8234C110.21 75.6214 110.028 75.4418 109.847 75.4418H106.238V70.706C106.238 70.5265 106.124 70.4143 105.92 70.4143H101.017C100.812 70.4143 100.699 70.5265 100.699 70.706V75.5765C100.699 75.5765 98.2247 76.1825 98.0658 76.2049C97.8842 76.2498 97.7707 76.4069 97.7707 76.5865V79.6389C97.7707 79.8858 97.9523 80.0654 98.1566 80.0654H100.676V87.4271C100.676 92.9036 104.535 93.4647 107.168 93.4647C108.371 93.4647 109.824 93.0831 110.051 92.9709C110.187 92.926 110.255 92.7689 110.255 92.6118V89.2451C110.258 89.1497 110.227 89.0563 110.166 88.9821C110.105 88.9079 110.019 88.8578 109.924 88.8411V88.8434ZM163.712 83.9056C163.712 79.8432 162.055 79.3045 160.307 79.4841C158.945 79.5738 157.856 80.2472 157.856 80.2472V88.1476C157.856 88.1476 158.968 88.9107 160.625 88.9556C162.963 89.0229 163.712 88.1925 163.712 83.9056ZM169.228 83.5465C169.228 91.2449 166.709 93.4445 162.305 93.4445C158.582 93.4445 156.585 91.5816 156.585 91.5816C156.585 91.5816 156.494 92.6141 156.38 92.7487C156.312 92.8834 156.199 92.9283 156.063 92.9283H152.703C152.476 92.9283 152.272 92.7487 152.272 92.5467L152.317 67.6109C152.317 67.4089 152.499 67.2294 152.703 67.2294H157.538C157.742 67.2294 157.924 67.4089 157.924 67.6109V76.0725C157.924 76.0725 159.785 74.8829 162.509 74.8829L162.487 74.8381C165.21 74.8381 169.228 75.8481 169.228 83.5465ZM149.434 75.4441H144.668C144.418 75.4441 144.282 75.6236 144.282 75.8705V88.0803C144.282 88.0803 143.033 88.9556 141.331 88.9556C139.628 88.9556 139.129 88.1925 139.129 86.5092V75.8458C139.129 75.6438 138.947 75.4643 138.743 75.4643H133.885C133.681 75.4643 133.499 75.6438 133.499 75.8458V87.3149C133.499 92.2527 136.291 93.4871 140.128 93.4871C143.283 93.4871 145.848 91.7589 145.848 91.7589C145.848 91.7589 145.961 92.6343 146.03 92.7689C146.075 92.8811 146.234 92.9709 146.393 92.9709H149.434C149.684 92.9709 149.82 92.7914 149.82 92.5894L149.866 75.8234C149.866 75.6214 149.684 75.4418 149.434 75.4418V75.4441ZM95.6369 75.4216H90.802C90.5977 75.4216 90.4161 75.6236 90.4161 75.8705V92.3447C90.4161 92.7936 90.7112 92.9507 91.0971 92.9507H95.4553C95.9093 92.9507 96.0228 92.7487 96.0228 92.3447V75.8009C96.0228 75.5989 95.8412 75.4194 95.6369 75.4194V75.4216ZM93.2535 67.8354C91.5056 67.8354 90.121 69.2045 90.121 70.9327C90.121 72.6609 91.5056 74.0301 93.2535 74.0301C94.9559 74.0301 96.3406 72.6609 96.3406 70.9327C96.3406 69.2045 94.9559 67.8354 93.2535 67.8354ZM130.685 67.2743H125.895C125.691 67.2743 125.509 67.4538 125.509 67.6558V76.8356H117.996V67.6536C117.996 67.4516 117.814 67.272 117.61 67.272H112.775C112.571 67.272 112.389 67.4516 112.389 67.6536V92.5894C112.389 92.7914 112.593 92.9709 112.775 92.9709H117.61C117.814 92.9709 117.996 92.7914 117.996 92.5894V81.9283H125.509L125.464 92.5894C125.464 92.7914 125.645 92.9709 125.85 92.9709H130.685C130.889 92.9709 131.071 92.7914 131.071 92.5894V67.6536C131.071 67.4516 130.889 67.272 130.685 67.272V67.2743ZM87.851 78.3147V91.1978C87.851 91.2876 87.8283 91.4447 87.7148 91.4896C87.7148 91.4896 84.8774 93.4871 80.2014 93.4871C74.5492 93.4871 67.8529 91.7365 67.8529 80.2C67.8529 68.6636 73.7093 66.2845 79.4296 66.3069C84.378 66.3069 86.3756 67.4067 86.6934 67.6087C86.7842 67.7209 86.8296 67.8107 86.8296 67.9229L85.8762 71.918C85.8762 72.12 85.6719 72.3669 85.4222 72.2996C84.605 72.0527 83.3793 71.5589 80.4965 71.5589C77.1596 71.5589 73.5731 72.5016 73.5731 79.9307C73.5731 87.3598 76.978 88.2351 79.4296 88.2351C81.5179 88.2351 82.267 87.9883 82.267 87.9883V82.826H78.9302C78.6805 82.826 78.4989 82.6465 78.4989 82.4445V78.3147C78.4989 78.1127 78.6805 77.9331 78.9302 77.9331H87.4198C87.6694 77.9331 87.851 78.1127 87.851 78.3147Z" fill="#8C82FC"/>
</g>
<path d="M590.043 68.7848C590.043 70.13 588.938 71.3306 587.497 71.3306C586.392 71.3306 585.432 71.619 584.615 72.2435C583.702 72.8204 582.982 73.6366 582.406 74.5491C581.253 76.0865 580.677 77.9115 580.436 78.5836V87.7103C580.436 89.1034 579.236 90.2564 577.795 90.2564C576.401 90.2564 575.249 89.1034 575.249 87.7103V68.7848C575.249 67.3917 576.401 66.287 577.795 66.287C579.236 66.287 580.436 67.3921 580.436 68.7848V69.1212C580.724 68.7848 581.109 68.4009 581.445 68.1604C583.03 67.104 585.096 66.239 587.497 66.287C588.938 66.287 590.043 67.3921 590.043 68.7848ZM588.634 78.2483C588.683 71.7157 593.774 66.2398 600.355 66.2398C606.599 66.2398 611.546 70.8991 611.931 77.3834V77.6235C611.931 77.7197 611.931 77.9595 611.883 78.0558C611.739 79.2088 610.73 79.9774 609.385 79.9774H594.11C594.35 81.0825 594.879 82.3311 595.744 83.1477C596.752 84.3007 598.674 85.1645 600.355 85.3087C602.084 85.4526 604.149 85.0207 605.35 84.1081C606.359 83.051 608.328 83.1956 608.953 83.9636C609.577 84.6367 610.057 86.0778 608.953 87.0858C606.599 89.2469 603.765 90.2561 600.354 90.2561C593.774 90.2089 588.683 84.7809 588.634 78.2483ZM593.87 75.8947H607.464C606.983 73.9734 604.534 71.1395 600.355 70.8032C596.272 70.995 594.255 73.9254 593.87 75.8947ZM636.402 87.6635C636.402 89.0566 635.249 90.2576 633.808 90.2576C632.511 90.2576 631.502 89.345 631.262 88.192C629.437 89.4406 627.131 90.2576 624.729 90.2576C618.245 90.2576 613.057 84.7817 613.057 78.297C613.057 71.716 618.245 66.2402 624.729 66.2402C627.083 66.2402 629.388 67.0085 631.166 68.2574V59.2273C631.166 57.8342 632.319 56.6332 633.807 56.6332C635.248 56.6332 636.401 57.8342 636.401 59.2273V87.6635H636.402ZM624.73 71.4759C623 71.4759 621.415 72.1963 620.215 73.4452C619.014 74.6462 618.293 76.3749 618.293 78.2966C618.293 80.1217 619.014 81.8508 620.215 83.0518C621.415 84.3011 623 85.0214 624.73 85.0214C626.507 85.0214 628.044 84.3011 629.245 83.0518C630.445 81.8512 631.166 80.1217 631.166 78.2966C631.166 76.3749 630.446 74.6462 629.245 73.4452C628.044 72.1963 626.507 71.4759 624.73 71.4759ZM645.542 60.2357C645.542 61.6768 644.437 62.8774 642.948 62.8774C641.507 62.8774 640.354 61.6768 640.354 60.2357V59.2269C640.353 58.8859 640.419 58.548 640.548 58.2326C640.678 57.9173 640.869 57.6307 641.11 57.3896C641.352 57.1484 641.638 56.9574 641.953 56.8275C642.269 56.6976 642.607 56.6315 642.948 56.6328C644.437 56.6328 645.542 57.7858 645.542 59.2269V60.2357ZM645.542 68.9298V87.6631C645.542 89.1042 644.437 90.2572 642.948 90.2572C642.607 90.2586 642.269 90.1924 641.953 90.0625C641.638 89.9326 641.352 89.7416 641.11 89.5004C640.869 89.2593 640.678 88.9727 640.548 88.6574C640.419 88.3421 640.353 88.0041 640.354 87.6631V68.9298C640.354 67.3928 641.507 66.2877 642.948 66.2877C644.437 66.2877 645.542 67.3928 645.542 68.9298ZM648.842 83.3852C649.707 82.2329 651.389 82.0887 652.445 83.0012C653.694 84.0583 655.856 85.1623 657.729 85.1147C659.026 85.1147 660.227 84.6828 660.995 84.2022C661.668 83.6257 661.859 83.1458 661.859 82.7611C661.859 82.521 661.811 82.4251 661.716 82.2805C661.667 82.1367 661.475 81.9445 661.091 81.7047C660.418 81.2241 658.977 80.6956 657.248 80.3596H657.2C655.711 80.0715 654.27 79.6872 653.021 79.1103C651.724 78.4862 650.571 77.6216 649.707 76.3248C649.178 75.4602 648.89 74.4034 648.89 73.2987C648.89 71.089 650.139 69.2156 651.724 68.0147C653.405 66.862 655.423 66.2376 657.633 66.2376C660.947 66.2376 663.3 67.8229 664.838 68.8792C665.991 69.6479 666.327 71.2332 665.606 72.4334C664.838 73.5864 663.253 73.9228 662.052 73.1062C660.515 72.0978 659.17 71.3287 657.633 71.3287C656.432 71.3287 655.375 71.7131 654.751 72.1933C654.126 72.626 653.982 73.0583 653.982 73.2984C653.982 73.4902 653.982 73.5385 654.078 73.6823C654.127 73.7782 654.27 73.9704 654.607 74.1626C655.232 74.5949 656.48 75.0271 658.113 75.3156L658.161 75.3639H658.21C659.795 75.6516 661.284 76.0843 662.677 76.7567C663.974 77.3332 665.271 78.2457 666.087 79.5905C666.664 80.551 667 81.656 667 82.7607C667 85.1143 665.703 87.084 663.974 88.3325C662.244 89.5331 660.083 90.2542 657.729 90.2542C653.983 90.2063 651.101 88.4771 649.179 86.9401C648.122 86.0756 647.978 84.4419 648.842 83.3852Z" fill="#8C82FC"/>
<path d="M557.754 93.7893C554.379 95.5482 536.899 102.735 533.178 104.675C529.456 106.616 527.389 106.597 524.449 105.192C521.509 103.786 502.907 96.2722 499.556 94.6706C497.881 93.8699 497.001 93.1946 497.001 92.5564V86.165C497.001 86.165 521.218 80.8928 525.128 79.4904C529.038 78.0876 530.394 78.037 533.721 79.2558C537.048 80.4746 556.943 84.0641 560.231 85.2684L560.23 91.5691C560.23 92.201 559.471 92.8942 557.754 93.7893Z" fill="#8C82FC"/>
<path d="M557.754 87.3959C554.379 89.1541 536.899 96.342 533.178 98.2819C529.456 100.223 527.389 100.204 524.449 98.7982C521.509 97.3936 502.907 89.8782 499.556 88.2772C496.205 86.6756 496.135 85.5731 499.427 84.2844C502.718 82.995 521.218 75.7368 525.128 74.334C529.038 72.932 530.394 72.8807 533.721 74.0999C537.049 75.3187 554.425 82.2349 557.713 83.4392C561.002 84.6446 561.128 85.6371 557.754 87.3959Z" fill="#736ADC"/>
<path d="M557.754 83.3665C554.379 85.1254 536.899 92.3126 533.178 94.2533C529.456 96.1932 527.389 96.1742 524.449 94.7688C521.509 93.3642 502.907 85.8495 499.556 84.2479C497.881 83.4472 497.001 82.7726 497.001 82.1344V75.7422C497.001 75.7422 521.218 70.4704 525.128 69.0676C529.038 67.6652 530.394 67.6143 533.721 68.8331C537.048 70.0519 556.943 73.6407 560.231 74.8453L560.23 81.1468C560.23 81.7783 559.471 82.4715 557.754 83.3665Z" fill="#8C82FC"/>
<path d="M557.754 76.9733C554.379 78.7322 536.899 85.9193 533.178 87.86C529.456 89.7999 527.389 89.7809 524.449 88.3755C521.509 86.9709 502.907 79.4559 499.556 77.8546C496.205 76.2533 496.135 75.1508 499.427 73.8614C502.718 72.5727 521.218 65.3142 525.128 63.9117C529.038 62.5093 530.394 62.4584 533.721 63.6772C537.049 64.896 554.425 71.8119 557.713 73.0165C561.002 74.2216 561.128 75.2144 557.754 76.9733Z" fill="#736ADC"/>
<path d="M557.754 72.5577C554.379 74.3166 536.899 81.5042 533.178 83.4448C529.456 85.3847 527.389 85.3657 524.449 83.9603C521.509 82.5557 502.907 75.0407 499.556 73.4394C497.881 72.6387 497.001 71.9637 497.001 71.3259V64.9338C497.001 64.9338 521.218 59.662 525.128 58.2595C529.038 56.8567 530.394 56.8062 533.721 58.025C537.048 59.2438 556.943 62.8326 560.231 64.0372L560.23 70.3383C560.23 70.9694 559.471 71.6627 557.754 72.5577Z" fill="#8C82FC"/>
<path d="M557.754 66.1644C554.379 67.9233 536.899 75.1108 533.178 77.0511C529.456 78.991 527.389 78.9721 524.449 77.567C521.509 76.162 502.907 68.6473 499.556 67.0461C496.205 65.4448 496.135 64.3419 499.427 63.0529C502.718 61.7638 521.218 54.506 525.128 53.1032C529.038 51.7004 530.394 51.6499 533.721 52.8691C537.049 54.0879 554.425 61.0037 557.713 62.2084C561.002 63.4127 561.128 64.4059 557.754 66.1644Z" fill="#736ADC"/>
<path d="M536.901 60.0091L531.422 60.5778L530.196 63.529L528.215 60.2358L521.888 59.6671L526.609 57.9647L525.193 55.3517L529.612 57.0801L533.779 55.7159L532.653 58.4182L536.901 60.0091ZM529.869 74.3268L519.643 70.0858L534.296 67.837L529.869 74.3268Z" fill="white"/>
<path d="M515.692 67.7205C520.017 67.7205 523.523 66.3614 523.523 64.6848C523.523 63.0083 520.017 61.6492 515.692 61.6492C511.367 61.6492 507.861 63.0083 507.861 64.6848C507.861 66.3614 511.367 67.7205 515.692 67.7205Z" fill="white"/>
<path d="M543.376 60.8157L552.048 64.2427L543.384 67.6661L543.376 60.8157Z" fill="#44E4C9"/>
<path d="M533.783 64.6107L543.376 60.8157L543.384 67.6661L542.443 68.034L533.783 64.6107Z" fill="#44E4C9"/>
<path fill-rule="evenodd" clip-rule="evenodd" d="M803.797 94.2968C797.422 99.078 788.391 101.469 780.422 101.469C769.266 101.469 759.437 97.4843 752 90.578C751.469 90.0468 752 89.2499 752.531 89.7812C760.766 94.5624 770.594 97.2187 780.953 97.2187C787.859 97.2187 795.562 95.8905 802.734 92.703C803.797 92.1718 804.594 93.4999 803.797 94.2968Z" fill="#8C82FC"/>
<path fill-rule="evenodd" clip-rule="evenodd" d="M803.797 94.2968C797.422 99.078 788.391 101.469 780.422 101.469C769.266 101.469 759.437 97.4843 752 90.578C751.469 90.0468 752 89.2499 752.531 89.7812C760.766 94.5624 770.594 97.2187 780.953 97.2187C787.859 97.2187 795.562 95.8905 802.734 92.703C803.797 92.1718 804.594 93.4999 803.797 94.2968Z" fill="#8C82FC"/>
<path fill-rule="evenodd" clip-rule="evenodd" d="M803.797 92.7032C797.422 97.2188 788.391 99.6094 780.688 99.6094C770.328 99.6094 761.031 95.8907 753.859 90.0469C753.594 89.7813 753.063 89.7813 752.797 89.5157C752 88.9844 751.469 89.7813 752.266 90.3125C759.703 97.2188 769.797 101.203 780.688 101.203C788.656 101.203 797.688 98.8125 804.063 94.0313C804.328 93.7657 804.328 92.9688 803.797 92.7032Z" fill="#8C82FC"/>
<path fill-rule="evenodd" clip-rule="evenodd" d="M806.187 91.1094C805.391 90.0469 800.875 90.5781 798.75 90.8437C798.219 90.8437 797.953 90.3125 798.484 90.0469C802.203 87.3906 808.047 88.1875 808.578 88.9844C809.375 89.7812 808.312 95.8906 805.125 98.5469C804.594 99.0781 804.062 98.8125 804.328 98.2812C805.391 96.4219 806.984 92.1719 806.187 91.1094Z" fill="#8C82FC"/>
<path fill-rule="evenodd" clip-rule="evenodd" d="M809.109 89.25C809.906 90.0469 808.844 96.1563 805.656 98.8125C805.125 99.3438 804.594 99.0781 804.859 98.5469C805.656 96.6875 807.25 92.4375 806.453 91.375" fill="#8C82FC"/>
<path fill-rule="evenodd" clip-rule="evenodd" d="M799.016 72.25V69.8594C799.016 69.5937 799.281 69.3281 799.547 69.3281H810.703C810.969 69.3281 811.234 69.5937 811.234 69.8594V71.9844C811.234 72.25 810.969 72.7813 810.438 73.5781L804.594 81.8125C806.719 81.8125 808.844 82.0781 810.969 83.1406C811.5 83.4063 811.5 83.6719 811.5 84.2031V86.8594C811.5 87.125 811.234 87.6563 810.703 87.3906C807.25 85.5313 802.734 85.5313 799.016 87.3906C798.75 87.6563 798.219 87.125 798.219 86.8594V84.4688C798.219 84.2031 798.219 83.4063 798.75 82.875L805.391 73.3125H799.547C799.281 72.7813 799.016 72.5156 799.016 72.25ZM758.906 87.6563H755.453C755.187 87.6563 754.922 87.3906 754.922 87.125V69.8594C754.922 69.5937 755.187 69.3281 755.453 69.3281H758.641C758.906 69.3281 759.172 69.5937 759.172 69.8594V71.9844C759.969 69.8594 761.563 68.7969 763.688 68.7969C765.813 68.7969 767.141 69.8594 767.937 71.9844C768.734 69.8594 770.594 68.7969 772.453 68.7969C773.781 68.7969 775.375 69.3281 776.438 70.6563C777.5 71.9844 777.234 74.1094 777.234 75.9688V86.8594C777.234 87.125 776.969 87.3906 776.703 87.3906H773.25C772.984 87.3906 772.719 87.125 772.719 86.8594V74.6406C772.453 73.5781 771.656 73.0469 770.859 73.0469C770.062 73.0469 769.266 73.5781 768.734 74.375C768.469 75.1719 768.469 76.7656 768.469 77.5625V86.5938C768.469 86.8594 768.203 87.125 767.937 87.125H764.484C764.219 87.125 763.953 86.8594 763.953 86.5938V77.5625C763.953 75.7031 764.219 72.7813 761.828 72.7813C759.438 72.7813 759.437 75.4375 759.437 77.5625V86.5938C759.437 87.3906 759.172 87.6563 758.906 87.6563ZM820.797 68.7969C825.844 68.7969 828.5 73.0469 828.5 78.625C828.5 83.9375 825.578 88.1875 820.797 88.1875C816.016 88.1875 813.359 83.9375 813.359 78.625C813.359 73.0469 816.016 68.7969 820.797 68.7969ZM820.797 72.25C818.406 72.25 818.141 75.7031 818.141 77.8281C818.141 79.9531 818.141 84.4688 820.797 84.4688C823.453 84.4688 823.453 80.75 823.453 78.625C823.453 77.2969 823.453 75.4375 822.922 74.1094C822.656 72.7813 821.859 72.25 820.797 72.25ZM835.141 87.6563H831.688C831.422 87.6563 831.156 87.3906 831.156 87.125V69.8594C831.156 69.5937 831.422 69.3281 831.688 69.3281H834.875C835.141 69.3281 835.406 69.5937 835.406 69.8594V72.5156C836.469 70.125 837.531 69.0625 839.922 69.0625C841.516 69.0625 842.844 69.5937 843.906 71.1875C844.703 72.5156 844.703 74.9063 844.703 76.5V87.3906C844.703 87.6563 844.437 87.9219 844.172 87.9219H840.719C840.453 87.9219 840.187 87.6563 840.187 87.3906V78.0938C840.187 76.2344 840.453 73.5781 838.062 73.5781C837.266 73.5781 836.469 74.1094 836.203 74.9063C835.672 75.9688 835.672 77.0313 835.672 78.0938V87.3906C835.672 87.3906 835.406 87.6563 835.141 87.6563Z" fill="#4D42C8"/>
<path d="M848.688 87.9219C849.568 87.9219 850.281 87.2083 850.281 86.3281C850.281 85.4479 849.568 84.7344 848.688 84.7344C847.807 84.7344 847.094 85.4479 847.094 86.3281C847.094 87.2083 847.807 87.9219 848.688 87.9219Z" fill="#8C82FC"/>
<path d="M882.687 87.6564C882.422 87.6564 882.156 87.3907 882.156 87.1251V69.8595C882.156 69.5939 882.422 69.3282 882.687 69.3282H883.75C884.016 69.3282 884.281 69.5939 884.281 69.8595V72.2501C885.078 70.3908 886.672 68.797 888.797 68.797C890.922 68.797 892.516 70.3907 893.312 72.7814C894.109 70.3907 895.969 68.797 898.359 68.797C899.953 68.797 901.547 69.8595 902.344 71.4532C903.141 73.047 903.141 74.9064 903.141 76.7657V87.1251C903.141 87.3907 902.875 87.6564 902.609 87.6564H901.016C900.75 87.6564 900.484 87.3907 900.484 87.1251V76.7657C900.484 75.4376 900.484 74.1095 899.953 73.047C899.422 71.9845 898.359 71.1876 897.297 71.1876C896.234 71.1876 895.172 71.9845 894.375 73.3126C893.578 74.9064 893.578 76.2345 893.578 77.8282V87.1251C893.578 87.3907 893.312 87.6564 893.047 87.6564H891.453C891.188 87.6564 890.922 87.3907 890.922 87.1251V75.9689C890.922 74.9064 890.922 73.8439 890.391 72.7814C889.859 71.7189 888.797 71.1876 887.734 70.922C886.672 70.922 885.609 71.7189 885.078 72.7814C884.281 74.1095 884.016 75.4376 884.016 77.0314V86.8595C884.016 87.1251 883.75 87.3907 883.484 87.3907H882.687V87.6564ZM872.594 87.922C867.812 87.922 865.688 83.1407 865.688 78.0939C865.688 73.047 868.078 68.5314 873.125 68.5314C877.906 68.5314 880.031 73.3126 880.031 78.0939C880.031 83.4064 877.641 87.922 872.594 87.922ZM872.859 85.5314C874.453 85.5314 875.781 84.4689 876.313 82.8751C876.844 81.547 877.109 79.6876 877.109 78.0939C877.109 76.2345 876.844 74.6407 876.047 73.047C875.25 71.7189 874.187 70.922 872.594 70.922C871 70.922 869.672 71.9845 869.141 73.5782C868.609 74.9064 868.344 76.7657 868.344 78.0939C868.344 79.6876 868.609 81.8126 869.141 83.1407C870.203 84.7345 871.531 85.5314 872.859 85.5314ZM857.453 85.5314C859.578 85.5314 860.641 83.672 861.172 81.547C861.172 81.2814 861.438 81.0157 861.703 81.0157H863.031C863.297 81.0157 863.563 81.2814 863.563 81.547C863.031 85.2657 860.641 87.922 857.453 87.922C852.672 87.922 850.547 83.1407 850.547 78.3595C850.547 73.5782 852.672 68.797 857.453 68.797C860.641 68.797 863.031 71.4532 863.563 75.172C863.563 75.4376 863.297 75.7032 863.031 75.7032H861.437C861.172 75.7032 860.906 75.4376 860.906 75.172C860.641 73.047 859.312 71.4532 857.188 71.1876C854 71.1876 852.938 75.172 852.938 78.3595C853.469 81.2814 854.266 85.5314 857.453 85.5314Z" fill="#8C82FC"/>
<path fill-rule="evenodd" clip-rule="evenodd" d="M790.25 79.422C790.25 80.7501 790.25 81.8126 789.719 82.8751C789.187 83.9376 788.391 84.4689 787.328 84.4689C786 84.4689 785.203 83.4064 785.203 82.0782C785.203 79.1564 787.859 78.6251 790.25 78.6251V79.422ZM793.703 87.6564H792.906C791.844 86.8595 791.578 86.3282 791.047 85.5314C789.187 87.3907 787.859 87.922 785.469 87.922C782.547 87.922 780.422 86.0626 780.422 82.6095C780.422 79.9532 782.016 78.0939 783.875 77.0314C785.734 76.2345 788.125 75.9689 790.25 75.9689V75.4376C790.25 74.6407 790.25 73.5782 789.719 73.047C789.187 72.5157 788.656 72.2501 787.859 72.2501C786.531 72.2501 785.469 72.7814 785.203 74.3751C785.203 74.6407 784.937 74.9064 784.672 74.9064L781.484 74.3751C781.219 74.3751 780.953 74.1095 780.953 73.5782C781.75 69.5939 785.203 68.5314 788.391 68.5314C789.984 68.5314 792.109 69.0626 793.437 70.1251C795.031 71.7189 795.031 73.5782 795.031 75.9689V81.2814C795.031 82.8751 795.562 83.672 796.359 84.4689C796.625 84.7345 796.625 85.2657 796.359 85.2657C795.562 85.797 794.234 86.8595 793.703 87.6564ZM746.156 79.422C746.156 80.7501 746.156 81.8126 745.625 82.8751C745.094 83.9376 744.297 84.4689 743.234 84.4689C741.906 84.4689 741.109 83.4064 741.109 82.0782C741.109 79.1564 743.766 78.6251 746.156 78.6251V79.422ZM749.609 87.6564H748.812C747.75 86.8595 747.484 86.3282 746.953 85.5314C745.094 87.3907 743.766 87.922 741.375 87.922C738.453 87.922 736.328 86.0626 736.328 82.6095C736.328 79.9532 737.922 78.0939 739.781 77.0314C741.641 76.2345 744.031 75.9689 746.156 75.9689V75.4376C746.156 74.6407 746.156 73.5782 745.625 73.047C745.094 72.5157 744.297 72.2501 743.766 72.2501C742.437 72.2501 741.375 72.7814 741.109 74.3751C741.109 74.6407 740.844 74.9064 740.578 74.9064L737.391 74.3751C737.125 74.3751 736.859 74.1095 736.859 73.5782C737.656 69.5939 741.109 68.5314 744.297 68.5314C745.891 68.5314 748.016 69.0626 749.344 70.1251C751.203 71.7189 750.937 73.8439 750.937 75.9689V81.2814C750.937 82.8751 751.469 83.672 752.266 84.4689C752.531 84.7345 752.531 85.2657 752.266 85.2657C751.469 85.797 750.406 86.8595 749.609 87.6564Z" fill="#4D42C8"/>
<path fill-rule="evenodd" clip-rule="evenodd" d="M840.187 68.797C837.797 68.797 836.469 69.8595 835.672 72.2501V69.5939C835.672 69.3283 835.406 69.0626 835.141 69.0626H831.953C831.688 69.0626 831.422 69.3283 831.422 69.5939V74.9064C835.937 73.3126 839.922 71.7189 843.375 69.8595C842.312 69.0626 841.25 68.797 840.187 68.797ZM820.797 68.797C816.016 68.797 813.359 73.047 813.359 78.3595V79.6876C814.953 79.422 816.547 78.8907 818.141 78.6251V77.8282C818.141 75.7032 818.406 72.2501 820.797 72.2501C821.859 72.2501 822.656 72.7814 822.922 73.8439C823.187 74.9064 823.453 75.9689 823.453 77.0314C825.047 76.5001 826.641 76.2345 828.234 75.7032C827.437 71.7189 825.047 68.797 820.797 68.797ZM810.703 69.0626H799.547C799.281 69.0626 799.016 69.3283 799.016 69.5939V71.9845C799.016 72.2501 799.281 72.5157 799.547 72.5157H805.391L799.281 81.547C801.406 81.2814 803.266 81.0157 805.125 80.7501L810.438 73.047C810.969 72.2501 811.234 71.7189 811.234 71.4532V69.3282C811.5 69.3282 810.969 69.0626 810.703 69.0626ZM793.437 70.3907C792.109 69.0626 789.984 68.797 788.391 68.797C785.203 68.797 781.75 69.8595 780.953 73.8439C780.953 74.3751 781.219 74.3751 781.484 74.6407L784.672 74.9064C784.938 74.9064 785.203 74.6407 785.203 74.3751C785.469 73.047 786.531 72.2501 787.859 72.2501C788.656 72.2501 789.453 72.5157 789.719 73.047C790.25 73.8439 790.25 74.6407 790.25 75.4376V75.9689C788.391 76.2345 785.734 76.2345 783.875 77.0314C781.75 77.8282 780.422 79.6876 780.422 82.6095H785.203V82.0782C785.203 79.1564 787.859 78.6251 790.25 78.6251V79.422C790.25 80.4845 790.25 81.547 789.719 82.6095C791.578 82.6095 793.172 82.3439 795.031 82.3439V76.2345C795.031 73.8439 795.031 71.7189 793.437 70.3907ZM772.719 68.797C770.859 68.797 769 69.8595 768.203 71.9845C767.141 69.8595 765.812 68.797 763.953 68.797C761.828 68.797 760.234 69.8595 759.438 71.9845V69.8595C759.172 69.3282 758.906 69.0626 758.641 69.0626H755.453C755.188 69.0626 754.922 69.3283 754.922 69.5939V79.9532C756.516 80.2189 757.844 80.4845 759.438 80.7501V77.5626C759.438 75.4376 759.438 72.7814 761.828 72.7814C764.219 72.7814 763.953 75.7032 763.953 77.5626V81.2814C765.547 81.547 767.141 81.547 768.469 81.8126V77.5626C768.469 76.5001 768.469 75.172 768.734 74.3751C769 73.5782 769.797 73.047 770.859 73.047C771.922 73.047 772.719 73.3126 772.719 74.6407C772.984 75.4376 772.719 77.0314 772.719 77.8282V82.3439C774.312 82.3439 775.906 82.6095 777.234 82.6095V76.2345C777.234 74.3751 777.5 72.2501 776.438 70.922C775.641 69.3283 774.047 68.797 772.719 68.797ZM744.297 68.5314C741.109 68.5314 737.656 69.5939 736.859 73.5782C736.859 74.1095 737.125 74.1095 737.391 74.3751L740.578 74.6407C740.844 74.6407 741.109 74.3751 741.109 74.1095C741.375 72.7814 742.437 71.9845 743.766 71.9845C744.562 71.9845 745.359 72.2501 745.625 72.7814C746.156 73.5782 746.156 74.3751 746.156 75.172V75.7032C744.562 76.2345 742.172 76.2345 740.312 77.0314C743.766 78.0939 747.219 78.8907 750.938 79.6876V76.2345C750.938 74.1095 751.203 71.9845 749.344 70.3907C748.281 69.0626 746.156 68.5314 744.297 68.5314Z" fill="#8C82FC"/>
<path d="M131.413 182.217H122.238C121.698 182.217 121.159 182.751 120.889 183.286L117.111 206.789C117.111 207.323 117.381 207.59 117.921 207.59H122.778C123.317 207.59 123.587 207.323 123.587 206.789L124.667 200.112C124.667 199.578 125.206 199.043 126.016 199.043H128.984C135.191 199.043 138.698 196.105 139.508 190.23C140.048 187.826 139.508 185.689 138.429 184.354C136.81 183.019 134.381 182.217 131.413 182.217ZM132.492 191.031C131.952 194.236 129.524 194.236 127.095 194.236H125.476L126.556 188.093C126.556 187.826 126.825 187.559 127.365 187.559H127.905C129.524 187.559 131.143 187.559 131.952 188.627C132.492 188.894 132.492 189.696 132.492 191.031Z" fill="#453BAE"/>
<path d="M65.3016 182.217H56.127C55.5873 182.217 55.0476 182.751 54.7778 183.286L51 206.789C51 207.323 51.2698 207.59 51.8095 207.59H56.127C56.6667 207.59 57.2063 207.056 57.4762 206.522L58.5556 200.112C58.5556 199.578 59.0952 199.043 59.9048 199.043H62.873C69.0794 199.043 72.5873 196.105 73.3968 190.23C73.9365 187.826 73.3968 185.689 72.3175 184.354C70.6984 183.019 68.5397 182.217 65.3016 182.217ZM66.381 191.031C65.8413 194.236 63.4127 194.236 60.9841 194.236H59.6349L60.7143 188.093C60.7143 187.826 60.9841 187.559 61.5238 187.559H62.0635C63.6825 187.559 65.3016 187.559 66.1111 188.627C66.381 188.894 66.6508 189.696 66.381 191.031ZM93.0952 190.764H88.7778C88.5079 190.764 87.9683 191.031 87.9683 191.298L87.6984 192.633L87.4286 192.099C86.3492 190.764 84.4603 190.23 82.3016 190.23C77.4445 190.23 73.127 193.969 72.3175 199.043C71.7778 201.714 72.5873 204.118 73.9365 205.72C75.2857 207.323 77.1746 207.857 79.6032 207.857C83.6508 207.857 85.8095 205.453 85.8095 205.453L85.5397 206.789C85.5397 207.323 85.8095 207.59 86.3492 207.59H90.3968C90.9365 207.59 91.4762 207.056 91.746 206.522L94.1746 191.565C93.9048 191.298 93.3651 190.764 93.0952 190.764ZM86.8889 199.31C86.3492 201.714 84.4603 203.584 81.7619 203.584C80.4127 203.584 79.3333 203.05 78.7937 202.515C78.254 201.714 77.9841 200.646 77.9841 199.31C78.254 196.907 80.4127 195.037 82.8413 195.037C84.1905 195.037 85 195.571 85.8095 196.105C86.6191 196.907 86.8889 198.242 86.8889 199.31Z" fill="#8C82FC"/>
<path d="M158.937 190.764H154.619C154.349 190.764 153.81 191.031 153.81 191.298L153.54 192.633L153.27 192.099C152.191 190.764 150.302 190.23 148.143 190.23C143.286 190.23 138.968 193.969 138.159 199.043C137.619 201.714 138.429 204.118 139.778 205.72C141.127 207.323 143.016 207.857 145.445 207.857C149.492 207.857 151.651 205.453 151.651 205.453L151.381 206.789C151.381 207.323 151.651 207.59 152.191 207.59H156.238C156.778 207.59 157.318 207.056 157.587 206.522L160.016 191.565C159.746 191.298 159.476 190.764 158.937 190.764ZM152.73 199.31C152.191 201.714 150.302 203.584 147.603 203.584C146.254 203.584 145.175 203.05 144.635 202.515C144.095 201.714 143.825 200.646 143.825 199.31C144.095 196.907 146.254 195.037 148.683 195.037C150.032 195.037 150.841 195.571 151.651 196.106C152.73 196.907 153 198.242 152.73 199.31Z" fill="#453BAE"/>
<path d="M116.571 190.764H111.984C111.444 190.764 111.175 191.031 110.905 191.298L104.968 200.379L102.27 191.832C102 191.298 101.73 191.031 100.921 191.031H96.6032C96.0635 191.031 95.7937 191.565 95.7937 192.099L100.651 206.255L96.0635 212.665C95.7937 213.199 96.0635 214 96.6032 214H100.921C101.46 214 101.73 213.733 102 213.466L116.841 192.367C117.651 191.565 117.111 190.764 116.571 190.764Z" fill="#8C82FC"/>
<path d="M164.063 183.019L160.286 207.056C160.286 207.59 160.556 207.857 161.095 207.857H164.873C165.413 207.857 165.952 207.323 166.222 206.789L170 183.286C170 182.751 169.73 182.484 169.19 182.484H164.873C164.603 182.217 164.333 182.484 164.063 183.019Z" fill="#453BAE"/>
<path d="M31.0317 174.205C29.1429 172.068 25.6349 171 20.7778 171H7.28572C6.47619 171 5.66667 171.801 5.39683 172.602L0 207.59C0 208.391 0.539683 208.925 1.07937 208.925H9.44444L11.6032 195.839V196.373C11.873 195.571 12.6825 194.77 13.4921 194.77H17.5397C25.3651 194.77 31.3016 191.565 33.1905 182.752V181.95C32.9206 181.95 32.9206 181.95 33.1905 181.95C33.4603 178.478 32.9206 176.342 31.0317 174.205Z" fill="#8C82FC"/>
<path d="M32.9206 181.95V182.752C31.0317 191.832 25.0952 194.77 17.2698 194.77H13.2222C12.4127 194.77 11.6032 195.571 11.3333 196.373L8.63492 212.665C8.63492 213.199 8.90476 213.733 9.71428 213.733H16.7302C17.5397 213.733 18.3492 213.199 18.3492 212.398V212.13L19.6984 203.851V203.317C19.6984 202.516 20.5079 201.981 21.3175 201.981H22.3968C29.1429 201.981 34.5397 199.311 35.8889 191.298C36.4286 188.093 36.1587 185.155 34.5397 183.286C34.2698 182.752 33.7302 182.217 32.9206 181.95Z" fill="#453BAE"/>
<path d="M31.0317 181.149C30.7619 181.149 30.4921 180.882 30.2222 180.882C29.9524 180.882 29.6825 180.882 29.4127 180.615C28.3333 180.348 27.254 180.348 25.9048 180.348H15.381C15.1111 180.348 14.8413 180.348 14.5714 180.615C14.0318 180.882 13.7619 181.416 13.7619 181.95L11.6032 195.839V196.373C11.873 195.572 12.6825 194.77 13.4921 194.77H17.5397C25.3651 194.77 31.3016 191.565 33.1905 182.752C33.1905 182.485 33.1905 182.217 33.4603 181.95C32.9206 181.683 32.6508 181.416 32.1111 181.416C31.3016 181.149 31.3016 181.149 31.0317 181.149Z" fill="#655CD5"/>
<g clip-path="url(#clip3_109_572)">
<path d="M356.876 174.016C356.876 172.351 358.269 171 359.987 171H395.865C397.584 171 398.977 172.351 398.977 174.016V210.09C398.977 211.755 397.584 213.105 395.865 213.105H359.987C358.269 213.105 356.876 211.755 356.876 210.09V174.016V174.016Z" fill="#44E4C9"/>
<path d="M239.022 206.269H256.592V200.536H245.381V178.666H239.022V206.269ZM265.487 206.269V187.257H259.128V206.269H265.487ZM262.308 184.661C264.526 184.661 265.906 183.201 265.906 181.376C265.865 179.51 264.526 178.092 262.351 178.092C260.175 178.092 258.753 179.511 258.753 181.376C258.753 183.201 260.133 184.661 262.267 184.661H262.308ZM268.44 206.269H274.799V195.651C274.799 195.083 274.84 194.515 275.008 194.11C275.467 192.975 276.513 191.799 278.27 191.799C280.572 191.799 281.493 193.543 281.493 196.097V206.269H287.851V195.368C287.851 189.527 284.713 186.81 280.529 186.81C277.099 186.81 275.593 188.716 274.756 190.014H274.799V187.257H268.44C268.524 189.041 268.44 206.269 268.44 206.269ZM296.822 178.666H290.463V206.269H296.822V200.105L298.411 198.117L303.39 206.269H311.212L302.846 194.467L310.166 186.438H302.512C302.512 186.438 297.282 193.621 296.822 194.474V178.666Z" fill="#8C82FC"/>
<path d="M328.217 198.338C328.301 197.85 328.427 196.914 328.427 195.855C328.427 190.94 325.916 185.95 319.306 185.95C312.236 185.95 308.973 191.507 308.973 196.547C308.973 202.781 312.947 206.673 319.892 206.673C322.653 206.673 325.204 206.269 327.297 205.417L326.46 201.243C324.744 201.809 322.987 202.092 320.812 202.092C317.842 202.092 315.249 200.88 315.04 198.298L328.217 198.337V198.338ZM314.998 194.063C315.165 192.441 316.254 190.047 318.973 190.047C321.859 190.047 322.529 192.603 322.529 194.063H314.998H314.998ZM344.122 178.666V188.221H344.038C343.118 186.884 341.193 185.992 338.643 185.992C333.748 185.992 329.439 189.885 329.48 196.536C329.48 202.7 333.371 206.716 338.223 206.716C340.859 206.716 343.369 205.579 344.625 203.389H344.75L345.001 206.269H350.648C350.565 204.931 350.481 202.619 350.481 200.348V178.665H344.122L344.122 178.666ZM344.122 197.469C344.122 197.955 344.081 198.442 343.996 198.847C343.621 200.592 342.115 201.807 340.274 201.807C337.639 201.807 335.923 199.699 335.923 196.373C335.923 193.251 337.388 190.736 340.316 190.736C342.282 190.736 343.662 192.074 344.039 193.736C344.122 194.102 344.122 194.508 344.122 194.873V197.468V197.469Z" fill="#8C82FC"/>
<path d="M369.638 206.246V187.233H363.279V206.246H369.639H369.638ZM366.46 184.638C368.677 184.638 370.057 183.178 370.057 181.353C370.015 179.488 368.677 178.068 366.502 178.068C364.325 178.068 362.904 179.488 362.904 181.353C362.904 183.178 364.284 184.638 366.418 184.638H366.459H366.46ZM373.158 206.246H379.516V195.63C379.516 195.062 379.558 194.493 379.726 194.088C380.185 192.952 381.231 191.777 382.988 191.777C385.289 191.777 386.21 193.52 386.21 196.076V206.246H392.568V195.345C392.568 189.505 389.431 186.788 385.248 186.788C381.818 186.788 380.311 188.693 379.474 189.991H379.517V187.234H373.158C373.241 189.018 373.158 206.247 373.158 206.247V206.246Z" fill="white"/>
</g>
<g clip-path="url(#clip4_109_572)">
<path d="M514.022 217.865C528.242 217.865 539.77 206.302 539.77 192.038C539.77 177.774 528.242 166.211 514.022 166.211C499.803 166.211 488.275 177.774 488.275 192.038C488.275 206.302 499.803 217.865 514.022 217.865Z" fill="#44E4C9"/>
<path d="M531.194 192.038C531.117 189.958 529.376 188.334 527.296 188.405C526.374 188.437 525.498 188.816 524.832 189.451C521.901 187.448 518.458 186.351 514.918 186.274L516.589 178.217L522.099 179.379C522.253 180.797 523.52 181.825 524.934 181.671C526.349 181.516 527.373 180.245 527.219 178.827C527.066 177.408 525.798 176.381 524.384 176.535C523.571 176.618 522.842 177.093 522.438 177.799L516.128 176.535C515.699 176.438 515.27 176.708 515.174 177.145V177.157L513.274 186.119C509.69 186.177 506.202 187.281 503.232 189.297C501.722 187.872 499.341 187.943 497.92 189.464C496.499 190.979 496.57 193.367 498.086 194.793C498.381 195.069 498.72 195.306 499.098 195.473C499.072 195.852 499.072 196.231 499.098 196.609C499.098 202.394 505.818 207.099 514.106 207.099C522.394 207.099 529.114 202.4 529.114 196.609C529.139 196.231 529.139 195.852 529.114 195.473C530.406 194.825 531.219 193.489 531.194 192.038ZM505.446 194.626C505.446 193.2 506.605 192.038 508.026 192.038C509.446 192.038 510.605 193.2 510.605 194.626C510.605 196.051 509.446 197.213 508.026 197.213C506.598 197.2 505.446 196.051 505.446 194.626ZM520.403 201.726C518.573 203.106 516.333 203.812 514.042 203.716C511.75 203.812 509.51 203.106 507.68 201.726C507.437 201.431 507.482 200.988 507.776 200.744C508.032 200.532 508.397 200.532 508.659 200.744C510.208 201.88 512.096 202.458 514.016 202.368C515.936 202.471 517.83 201.918 519.398 200.795C519.68 200.519 520.141 200.525 520.416 200.808C520.691 201.09 520.685 201.553 520.403 201.829V201.726ZM519.942 197.303C518.522 197.303 517.363 196.141 517.363 194.715C517.363 193.29 518.522 192.128 519.942 192.128C521.363 192.128 522.522 193.29 522.522 194.715C522.579 196.141 521.472 197.341 520.051 197.399H519.923L519.942 197.303Z" fill="white"/>
<path d="M631.923 184.161C633.86 184.161 635.43 182.586 635.43 180.643C635.43 178.7 633.86 177.125 631.923 177.125C629.986 177.125 628.416 178.7 628.416 180.643C628.416 182.586 629.986 184.161 631.923 184.161Z" fill="#44E4C9"/>
<path d="M582.221 195.614C583.578 195.711 584.755 194.683 584.858 193.316C584.864 193.239 584.864 193.149 584.864 193.066C584.845 192.591 584.787 192.109 584.691 191.64C583.859 187.185 580.064 183.905 575.552 183.725C570.413 183.725 566.118 188.463 566.118 194.279C566.118 200.095 570.342 204.839 575.546 204.839C578.304 204.949 580.979 203.832 582.835 201.784C583.597 200.949 583.533 199.659 582.701 198.895C582.637 198.837 582.579 198.786 582.515 198.741C581.683 198.221 580.602 198.33 579.898 199.01C578.739 200.166 577.184 200.827 575.546 200.878C572.717 200.654 570.451 198.433 570.17 195.589H582.144L582.221 195.614ZM575.526 187.699C578.016 187.866 580.109 189.65 580.666 192.096H570.4C570.95 189.644 573.03 187.859 575.526 187.699ZM566.323 185.773C566.323 184.784 565.594 183.943 564.614 183.821C561.971 183.378 559.283 184.36 557.549 186.415V186.158C557.549 185.06 556.666 184.174 555.571 184.174C554.477 184.174 553.594 185.06 553.594 186.158V202.4C553.568 203.466 554.381 204.371 555.443 204.461C556.525 204.538 557.472 203.716 557.542 202.631C557.549 202.554 557.549 202.477 557.542 202.4V194.067C557.37 190.742 559.91 187.911 563.226 187.731C563.52 187.712 563.821 187.718 564.115 187.75H564.512C565.536 187.66 566.323 186.806 566.323 185.773ZM633.894 187.904C633.894 186.806 633.011 185.92 631.917 185.92C630.822 185.92 629.939 186.806 629.939 187.904V202.394C629.939 203.491 630.822 204.377 631.917 204.377C633.011 204.377 633.894 203.491 633.894 202.394V187.904ZM604.71 176.894C604.71 175.803 603.827 174.917 602.739 174.917C601.651 174.917 600.768 175.803 600.768 176.894V185.754C599.437 184.405 597.606 183.674 595.718 183.725C590.579 183.725 586.285 188.463 586.285 194.279C586.285 200.095 590.515 204.839 595.718 204.839C597.638 204.897 599.494 204.159 600.858 202.792C601.165 203.838 602.259 204.435 603.302 204.127C604.09 203.896 604.653 203.202 604.704 202.374L604.71 176.894ZM595.706 200.93C592.678 200.93 590.214 197.977 590.214 194.324C590.214 190.671 592.659 187.718 595.706 187.718C598.752 187.718 601.197 190.671 601.197 194.324C601.197 197.977 598.752 200.898 595.718 200.898L595.706 200.93ZM625.331 176.894C625.331 175.803 624.448 174.917 623.36 174.917C622.272 174.917 621.389 175.803 621.389 176.894V185.754C620.058 184.405 618.227 183.674 616.339 183.725C611.2 183.725 606.906 188.463 606.906 194.279C606.906 200.095 611.136 204.839 616.339 204.839C618.259 204.897 620.115 204.159 621.478 202.792C621.786 203.838 622.88 204.435 623.923 204.127C624.71 203.896 625.274 203.202 625.325 202.374L625.331 176.894ZM616.333 200.93C613.306 200.93 610.842 197.977 610.842 194.324C610.842 190.671 613.286 187.718 616.333 187.718C619.379 187.718 621.824 190.671 621.824 194.324C621.824 197.977 619.379 200.898 616.346 200.898L616.333 200.93ZM644.141 202.387V187.699H645.85C646.797 187.757 647.603 187.031 647.661 186.087C647.661 186.055 647.667 186.017 647.667 185.978C647.75 185.035 647.053 184.2 646.118 184.117C646.067 184.11 646.01 184.11 645.958 184.11H644.147V181.382C644.16 180.322 643.354 179.43 642.298 179.334C641.216 179.257 640.275 180.078 640.198 181.163C640.192 181.208 640.192 181.26 640.192 181.305V184.155H638.477C637.53 184.097 636.723 184.823 636.666 185.766C636.666 185.798 636.659 185.837 636.659 185.876C636.576 186.819 637.274 187.654 638.208 187.737C638.259 187.744 638.317 187.744 638.368 187.744H640.077V202.394C640.077 203.485 640.96 204.371 642.048 204.371C643.136 204.441 644.064 203.607 644.134 202.516C644.141 202.477 644.141 202.432 644.141 202.387Z" fill="#8C82FC"/>
</g>
<g clip-path="url(#clip5_109_572)">
<path d="M801.206 199.461C801.419 199.461 801.533 199.39 801.647 199.205L806.541 190.056C807.125 188.961 807.708 187.765 807.993 187.182C808.035 187.068 808.135 187.111 808.135 187.182V203.402C808.135 203.587 808.249 203.687 808.419 203.687H811.464C811.649 203.687 811.749 203.573 811.749 203.402V181.605C811.749 181.42 811.635 181.32 811.464 181.32H807.466C807.21 181.32 807.068 181.434 806.954 181.605L800.608 194.054C800.566 194.125 800.537 194.125 800.494 194.054L794.149 181.605C794.035 181.42 793.893 181.32 793.636 181.32H789.638C789.453 181.32 789.354 181.434 789.354 181.605V203.416C789.354 203.601 789.468 203.701 789.638 203.701H792.683C792.868 203.701 792.968 203.587 792.968 203.416V187.196C792.968 187.125 793.082 187.083 793.11 187.196C793.395 187.78 793.978 188.975 794.561 190.07L799.456 199.219C799.57 199.404 799.669 199.475 799.897 199.475H801.206V199.461ZM849.012 180.779C849.012 180.595 848.898 180.495 848.728 180.495H845.683C845.498 180.495 845.398 180.609 845.398 180.779V187.936C845.398 188.05 845.356 188.079 845.256 188.05C843.919 187.467 842.638 187.139 841.187 187.139C836.691 187.139 833.347 190.184 833.347 195.42C833.347 201.296 836.861 203.986 840.902 203.986C842.795 203.986 844.274 203.473 845.797 202.392L848.301 203.658C848.742 203.872 849.026 203.658 849.026 203.26V180.779H849.012ZM815.149 195.434C815.149 201.496 819.219 203.957 823.274 203.957C825.635 203.957 827.841 203.303 829.733 201.894C829.918 201.752 829.947 201.638 829.847 201.424L828.865 199.575C828.751 199.361 828.609 199.361 828.424 199.461C826.688 200.471 825.237 200.955 823.487 200.955C821.424 200.955 819.062 199.902 818.735 196.487C818.735 196.445 818.735 196.374 818.849 196.374H830.203C830.573 196.374 830.53 195.762 830.53 195.207C830.53 189.359 827.044 187.111 823.16 187.111C818.621 187.125 815.149 190.142 815.149 195.434ZM867.879 200.955C866.356 200.955 865.303 200.372 864.834 199.319C864.62 198.849 864.507 198.223 864.507 197.284V187.623C864.507 187.438 864.393 187.339 864.222 187.339H861.163C860.978 187.339 860.878 187.452 860.878 187.623V197.426C860.878 198.949 861.092 199.973 861.462 200.798C862.444 202.933 864.549 203.957 867.31 203.957C869.373 203.957 870.938 203.445 872.503 202.364L875.007 203.63C875.448 203.843 875.733 203.63 875.733 203.231V187.637C875.733 187.452 875.619 187.353 875.448 187.353H872.403C872.218 187.353 872.119 187.467 872.119 187.637V197.697C872.119 198.607 872.076 199.006 871.507 199.589C870.34 200.67 869.145 200.955 867.879 200.955ZM836.989 195.434C836.989 191.949 838.91 190.142 841.343 190.142C842.581 190.142 843.705 190.426 844.644 191.266C845.299 191.849 845.37 192.361 845.37 193.585V197.682C845.37 198.593 845.327 198.991 844.758 199.575C843.634 200.67 842.439 200.955 841.343 200.955C839.422 200.955 836.989 199.717 836.989 195.434ZM853.252 203.416C853.252 203.601 853.366 203.701 853.537 203.701H856.582C856.767 203.701 856.866 203.587 856.866 203.416V187.623C856.866 187.438 856.752 187.339 856.582 187.339H853.537C853.352 187.339 853.252 187.452 853.252 187.623V203.416ZM818.877 193.4C819.247 191.337 820.769 189.985 823.089 189.985C825.408 189.985 826.831 191.579 826.831 193.471C826.831 193.542 826.788 193.585 826.717 193.585H818.991C818.849 193.585 818.877 193.443 818.877 193.4ZM852.925 182.444C852.925 183.568 853.864 184.479 855.059 184.479C856.254 184.479 857.193 183.568 857.193 182.444C857.193 181.32 856.254 180.41 855.059 180.41C853.864 180.41 852.925 181.32 852.925 182.444ZM901.372 203.416C901.372 203.601 901.486 203.701 901.656 203.701H904.701C904.886 203.701 904.986 203.587 904.986 203.416V193.841C904.986 191.991 904.701 190.825 904.217 189.885C903.207 187.965 901.244 187.125 898.839 187.125C896.662 187.125 894.67 187.894 893.105 189.416C891.938 187.894 890.231 187.125 888.168 187.125C886.205 187.125 884.654 187.637 883.16 188.719L880.656 187.452C880.214 187.239 879.93 187.452 879.93 187.851V203.416C879.93 203.601 880.044 203.701 880.214 203.701H883.259C883.444 203.701 883.544 203.587 883.544 203.416V193.4C883.544 192.461 883.615 192.02 884.085 191.507C884.881 190.64 886.076 190.17 887.314 190.17C889.349 190.17 890.615 191.337 890.615 193.471V203.416C890.615 203.601 890.729 203.701 890.9 203.701H893.945C894.13 203.701 894.229 203.587 894.229 203.416V193.4C894.229 192.461 894.3 192.02 894.77 191.507C895.567 190.64 896.762 190.17 898 190.17C899.337 190.17 900.361 190.682 900.902 191.664C901.158 192.176 901.301 192.831 901.301 193.727V203.416H901.372Z" fill="#8C82FC"/>
<path d="M754.495 173.054C754.267 172.954 754.096 173.054 754.096 173.31V203.772L767.442 210.431C768.097 210.758 768.638 210.431 768.638 209.677V180.367C768.638 180.21 768.567 180.082 768.424 180.025L754.495 173.054Z" fill="#8EF6E4"/>
<path d="M739.541 196.502L753.855 173.253C753.983 173.039 754.281 172.954 754.495 173.068L768.325 179.968C768.495 180.054 768.567 180.267 768.453 180.438L754.082 203.772L739.541 196.502Z" fill="#44E4C9"/>
<path d="M726.608 173.665C725.726 173.21 725.427 173.552 725.939 174.405L739.541 196.502L754.082 203.786L739.641 180.282C739.584 180.182 739.484 180.097 739.385 180.04L726.608 173.665Z" fill="#8EF6E4"/>
<path d="M739.541 209.691C739.541 210.431 739 210.772 738.346 210.445L725.811 204.171C725.356 203.943 725 203.36 725 202.862V173.751C725 173.253 725.356 173.025 725.811 173.253L739.37 180.04C739.47 180.097 739.555 180.21 739.555 180.324V209.691H739.541Z" fill="#44E4C9"/>
</g>
<defs>
<clipPath id="clip0_109_572">
<rect width="190" height="40" fill="white" transform="translate(239 59)"/>
</clipPath>
<clipPath id="clip1_109_572">
<rect width="54.6133" height="54" fill="white" transform="translate(0 52)"/>
</clipPath>
<clipPath id="clip2_109_572">
<rect width="102.147" height="35.9111" fill="white" transform="translate(67.8529 61.8181)"/>
</clipPath>
<clipPath id="clip3_109_572">
<rect width="160" height="42.1053" fill="white" transform="translate(239 171)"/>
</clipPath>
<clipPath id="clip4_109_572">
<rect width="160" height="52" fill="white" transform="translate(488 166)"/>
</clipPath>
<clipPath id="clip5_109_572">
<rect width="180" height="37.584" fill="white" transform="translate(725 173)"/>
</clipPath>
</defs>
</svg>
